<svg width="347" height="287" fill="none" xmlns="http://www.w3.org/2000/svg">
    <symbol id="main-logo-green" viewBox="0 0 347 287">     
        <path d="M60.3349 90.4851C60.4549 89.7064 60.5932 89.0699 60.7496 88.5759C60.906 88.0818 61.0741 87.6906 61.254 87.4023C61.3843 87.1935 61.5179 87.0292 61.6548 86.9093C61.7948 86.7844 61.9315 86.6926 62.0649 86.6337C62.1983 86.5748 62.3315 86.544 62.4644 86.5411C62.5925 86.535 62.7097 86.5463 62.816 86.575C62.9352 85.7534 63.0792 85.0856 63.248 84.5716C63.4168 84.0577 63.5974 83.6466 63.7897 83.3384C63.9385 83.0998 64.0981 82.9105 64.2682 82.7706C64.4366 82.6224 64.6238 82.5326 64.8299 82.501C65.039 82.4645 65.2695 82.488 65.5212 82.5714C65.776 82.6498 66.0618 82.7947 66.3787 83.006L71.7237 86.5709L70.7792 88.0846L65.4927 84.5587C65.3562 84.4677 65.2226 84.3997 65.0919 84.3548C64.9642 84.3048 64.8388 84.2845 64.7156 84.2939C64.5924 84.3033 64.4748 84.348 64.3627 84.4281C64.2457 84.5049 64.1345 84.6279 64.029 84.7969C63.8181 85.1349 63.6712 85.4699 63.5884 85.8018C63.5037 86.1255 63.4326 86.4442 63.375 86.7578L69.1881 90.6348L68.2436 92.1485L62.8839 88.5738C62.7816 88.5055 62.6754 88.4488 62.5655 88.4037C62.4507 88.3553 62.3333 88.3333 62.2132 88.3377C62.0962 88.3371 61.9808 88.3728 61.8669 88.4446C61.7513 88.5083 61.6438 88.6197 61.5446 88.7787C61.4546 88.9229 61.3755 89.0884 61.3073 89.2752C61.2373 89.4538 61.177 89.6388 61.1265 89.8304C61.076 90.022 61.0326 90.2078 60.9963 90.3877C60.9599 90.5676 60.9296 90.7269 60.9052 90.8655L66.6524 94.6986L65.7079 96.2123L58.8201 91.6184L59.7645 90.1047L60.3349 90.4851Z" fill="#9ED9CF"/>
        <path d="M75.2326 68.2439C75.6366 67.7956 76.0978 67.4544 76.6162 67.2204C77.1303 66.9824 77.6588 66.8553 78.2018 66.839C78.7444 66.8143 79.281 66.9013 79.8116 67.0999C80.3379 67.2945 80.8152 67.5961 81.2434 68.0046C81.6758 68.4172 82.0082 68.8882 82.2407 69.4176C82.4689 69.943 82.5937 70.487 82.6149 71.0497C82.6358 71.6039 82.5524 72.1557 82.3647 72.7052C82.1727 73.2507 81.8747 73.7475 81.4707 74.1958C81.0745 74.6355 80.6213 74.9721 80.1111 75.2058C79.6006 75.4311 79.076 75.5539 78.5373 75.5742C77.9943 75.5904 77.4577 75.5035 76.9275 75.3132C76.3969 75.1146 75.9154 74.809 75.4829 74.3964C75.0548 73.9879 74.7266 73.5209 74.4983 72.9955C74.2698 72.4617 74.1451 71.9177 74.1242 71.3635C74.099 70.8052 74.1785 70.2577 74.3626 69.721C74.5464 69.1759 74.8364 68.6835 75.2326 68.2439ZM75.7995 68.8091C75.4935 69.1486 75.2982 69.4965 75.2135 69.8529C75.1328 70.2049 75.1422 70.562 75.2417 70.924C75.3411 71.2861 75.5183 71.6494 75.7732 72.014C76.032 72.3743 76.3458 72.7303 76.7146 73.0822C77.0792 73.4301 77.4456 73.719 77.8139 73.949C78.1822 74.179 78.5456 74.3314 78.9039 74.4062C79.2581 74.4769 79.6027 74.4576 79.9378 74.3483C80.2768 74.2346 80.5973 74.0101 80.8993 73.675C81.2014 73.3398 81.3947 72.9941 81.4794 72.6377C81.564 72.2813 81.5607 71.9219 81.4694 71.5596C81.3777 71.1888 81.2066 70.8231 80.956 70.4626C80.7093 70.0977 80.4036 69.7413 80.039 69.3934C79.6702 69.0415 79.2976 68.7507 78.9211 68.5211C78.5486 68.287 78.1792 68.137 77.813 68.0709C77.4507 68.0005 77.1 68.0221 76.761 68.1358C76.422 68.2495 76.1015 68.4739 75.7995 68.8091Z" fill="#9ED9CF"/>
        <path d="M93.2989 59.7741L91.2656 53.2058L91.9184 52.6712L94.2807 60.2762L95.1514 60.7216L93.7165 61.8964L85.6757 57.7827L87.1242 56.5967L93.2989 59.7741Z" fill="#9ED9CF"/>
        <path d="M106.82 52.2998L105.309 53.2477L101.043 46.152L102.554 45.2041L106.82 52.2998ZM101.839 44.0139L100.327 44.9618L99.7884 44.0654L101.3 43.1175L101.839 44.0139Z" fill="#9ED9CF"/>
        <path d="M115.514 37.9074C116.056 37.6563 116.559 37.5462 117.022 37.5771C117.488 37.6002 117.915 37.7287 118.302 37.9627C118.695 38.1942 119.042 38.5111 119.344 38.9135C119.65 39.3081 119.914 39.7541 120.136 40.2514L120.305 40.6284L115.392 42.9027C115.526 43.2022 115.719 43.5036 115.97 43.8069C116.222 44.1101 116.52 44.3596 116.864 44.5553C117.214 44.7485 117.603 44.8652 118.032 44.9055C118.464 44.9381 118.93 44.8386 119.429 44.6073L121.088 43.8393L121.383 44.4971L119.7 45.2761C118.956 45.6207 118.274 45.8329 117.655 45.9129C117.041 45.9904 116.486 45.9472 115.989 45.7835C115.497 45.6173 115.063 45.337 114.688 44.9428C114.312 44.5485 113.989 44.0492 113.718 43.445C113.493 42.9423 113.352 42.42 113.296 41.878C113.245 41.3336 113.288 40.8133 113.425 40.3172C113.565 39.8133 113.805 39.3535 114.146 38.9377C114.489 38.5142 114.945 38.1707 115.514 37.9074ZM115.761 38.6742C115.431 38.8268 115.183 39.0321 115.016 39.2902C114.849 39.5482 114.745 39.8386 114.703 40.1613C114.665 40.4762 114.682 40.8166 114.756 41.1826C114.833 41.5408 114.948 41.8976 115.101 42.253L118.475 40.6913L118.32 40.3464C118.171 40.0411 118.009 39.7579 117.834 39.4966C117.664 39.2329 117.475 39.0173 117.265 38.8497C117.055 38.6821 116.825 38.5785 116.577 38.5388C116.331 38.4912 116.059 38.5364 115.761 38.6742Z" fill="#9ED9CF"/>
        <path d="M145.072 29.2702L143.909 29.5066L145.408 36.8433L143.755 37.1796L142.256 29.8428L141.136 30.0705L140.978 29.2955L142.097 29.0678L141.557 26.4242L143.109 25.5885L143.751 28.7316L144.914 28.4952L145.072 29.2702Z" fill="#9ED9CF"/>
        <path d="M156.65 27.4967C157.011 27.3075 157.346 27.1496 157.654 27.0229C157.961 26.8903 158.249 26.7825 158.519 26.6995C158.788 26.6106 159.039 26.5465 159.271 26.5072C159.509 26.4616 159.738 26.4312 159.96 26.4161C160.51 26.3785 160.939 26.4931 161.247 26.7598C161.562 27.0261 161.743 27.4777 161.792 28.1144L162.301 34.7219L160.521 34.8434L160.033 28.5077C160.023 28.3792 159.999 28.2487 159.959 28.1163C159.925 27.9836 159.869 27.867 159.791 27.7666C159.719 27.6659 159.619 27.5875 159.491 27.5317C159.369 27.4695 159.217 27.4447 159.036 27.4571C158.738 27.4774 158.393 27.5392 158.001 27.6422C157.615 27.7391 157.182 27.9184 156.703 28.1802L157.233 35.068L155.461 35.189L154.458 22.1582L156.23 22.0372L156.65 27.4967Z" fill="#9ED9CF"/>
        <path d="M177.692 26.542C178.288 26.5928 178.782 26.7466 179.176 27.0036C179.575 27.2552 179.891 27.579 180.122 27.975C180.359 28.3715 180.517 28.82 180.594 29.3205C180.678 29.8156 180.701 30.335 180.664 30.8787L180.636 31.2908L175.241 30.8312C175.219 31.1586 175.247 31.5167 175.326 31.9057C175.405 32.2946 175.551 32.6598 175.762 33.0012C175.98 33.3431 176.268 33.6381 176.627 33.8862C176.992 34.129 177.449 34.2738 177.998 34.3205L179.819 34.4757L179.77 35.1947L177.922 35.0373C177.105 34.9677 176.405 34.814 175.822 34.5762C175.245 34.3389 174.776 34.0255 174.415 33.6361C174.06 33.2472 173.81 32.7878 173.664 32.2579C173.518 31.7281 173.468 31.1329 173.513 30.4723C173.55 29.9228 173.671 29.3981 173.876 28.8981C174.086 28.3986 174.368 27.9669 174.722 27.6031C175.082 27.2339 175.509 26.9528 176.004 26.7598C176.505 26.5614 177.067 26.4888 177.692 26.542ZM177.55 27.3325C177.188 27.3017 176.873 27.3571 176.605 27.4989C176.337 27.6407 176.109 27.8418 175.921 28.1021C175.739 28.3571 175.595 28.6623 175.488 29.0178C175.388 29.3679 175.322 29.7357 175.29 30.121L178.994 30.4366L179.02 30.0595C179.031 29.7195 179.021 29.3923 178.99 29.078C178.964 28.7642 178.898 28.4822 178.792 28.2321C178.686 27.982 178.533 27.7778 178.332 27.6196C178.138 27.4561 177.877 27.3604 177.55 27.3325Z" fill="#9ED9CF"/>
        <path d="M195.116 29.9605C194.842 29.8958 194.6 29.8478 194.392 29.8165C194.188 29.7865 194.001 29.7663 193.83 29.7558C193.658 29.7454 193.497 29.7434 193.346 29.7498C193.196 29.7505 193.046 29.754 192.894 29.7605L192.808 29.1531C193.324 29.0886 193.85 29.0805 194.385 29.1286C194.926 29.1724 195.431 29.2496 195.898 29.3601C196.497 29.5017 196.981 29.6491 197.35 29.8025C197.724 29.9573 198.004 30.1347 198.189 30.335C198.375 30.5295 198.482 30.7595 198.51 31.0248C198.544 31.2858 198.522 31.5997 198.445 31.9665L197.098 38.3205L194.292 37.6572C193.528 37.4766 192.892 37.2419 192.385 36.9534C191.883 36.6661 191.489 36.3474 191.204 35.9971C190.92 35.6411 190.736 35.2694 190.65 34.882C190.566 34.4888 190.565 34.0974 190.648 33.7076C190.75 33.2261 190.914 32.8195 191.14 32.4877C191.371 32.1572 191.656 31.9025 191.993 31.7234C192.332 31.5386 192.72 31.4317 193.157 31.4026C193.596 31.3679 194.077 31.4125 194.602 31.5365C194.887 31.6039 195.199 31.7288 195.537 31.9112C195.882 32.0949 196.198 32.3233 196.488 32.5964L196.716 31.5216C196.744 31.3898 196.757 31.2546 196.757 31.116C196.757 30.9717 196.709 30.8338 196.611 30.7023C196.514 30.5651 196.348 30.4325 196.111 30.3044C195.881 30.1776 195.549 30.063 195.116 29.9605ZM195.511 37.2049L196.355 33.2241C196.116 32.9931 195.857 32.8025 195.578 32.6521C195.298 32.5018 194.979 32.3841 194.62 32.2992C194.335 32.2318 194.07 32.2234 193.826 32.274C193.587 32.3259 193.374 32.429 193.185 32.5831C192.997 32.7372 192.835 32.9366 192.699 33.1814C192.569 33.4276 192.47 33.7111 192.402 34.0321C192.383 34.1238 192.36 34.2449 192.334 34.3953C192.314 34.547 192.308 34.7142 192.318 34.897C192.333 35.0811 192.37 35.2734 192.429 35.474C192.495 35.6703 192.604 35.8616 192.756 36.048C192.908 36.2345 193.114 36.4066 193.374 36.5644C193.636 36.7164 193.969 36.8403 194.373 36.936L195.511 37.2049Z" fill="#9ED9CF"/>
        <path d="M212.672 35.5252L211.56 35.1099L209.132 42.1937L207.552 41.6031L209.979 34.5194L208.909 34.1195L209.166 33.3712L210.236 33.7711L211.111 31.2186L212.857 31.3269L211.817 34.3616L212.928 34.7769L212.672 35.5252Z" fill="#9ED9CF"/>
        <path d="M223.411 40.1373C223.69 40.0955 223.931 40.0669 224.132 40.0515C224.339 40.0387 224.518 40.0377 224.668 40.0487C224.821 40.0543 224.955 40.0732 225.069 40.1052C225.189 40.14 225.301 40.184 225.405 40.2372C225.812 40.4449 226.047 40.7423 226.11 41.1295C226.173 41.5166 226.099 41.9817 225.887 42.5246L224.322 42.2388C224.45 41.8309 224.507 41.5248 224.494 41.3207C224.48 41.1165 224.38 40.9665 224.192 40.8707C224.082 40.8148 223.94 40.772 223.766 40.7425C223.598 40.7156 223.388 40.7072 223.137 40.7172L220.147 47.0327L218.558 46.222L222.1 38.7387L223.69 39.5495L223.411 40.1373Z" fill="#9ED9CF"/>
        <path d="M238.866 48.2922C239.358 48.6325 239.711 49.0127 239.927 49.4331C240.151 49.8518 240.267 50.2919 240.275 50.7533C240.288 51.218 240.206 51.6885 240.03 52.1649C239.862 52.6396 239.629 53.1056 239.333 53.5628L239.108 53.9094L234.657 50.8272C234.479 51.1025 234.329 51.43 234.209 51.8096C234.088 52.1892 234.036 52.5809 234.054 52.9847C234.076 53.3918 234.182 53.7931 234.373 54.1885C234.571 54.5823 234.896 54.9359 235.349 55.2495L236.852 56.2902L236.46 56.8949L234.935 55.8392C234.261 55.3722 233.729 54.8899 233.34 54.3923C232.955 53.8981 232.701 53.391 232.578 52.871C232.459 52.3543 232.466 51.8279 232.597 51.2919C232.728 50.7558 232.974 50.2101 233.334 49.6545C233.634 49.1924 233.994 48.7934 234.414 48.4575C234.839 48.125 235.293 47.8874 235.776 47.7448C236.268 47.6007 236.775 47.567 237.297 47.6439C237.828 47.7192 238.351 47.9353 238.866 48.2922ZM238.359 48.9132C238.06 48.7064 237.76 48.5985 237.459 48.5894C237.158 48.5802 236.862 48.6428 236.573 48.7772C236.291 48.9099 236.018 49.1053 235.753 49.3634C235.496 49.6199 235.26 49.9088 235.044 50.2299L238.101 52.3464L238.307 52.0293C238.482 51.7375 238.632 51.4463 238.758 51.1557C238.888 50.8685 238.968 50.5891 238.998 50.3175C239.027 50.0458 238.994 49.791 238.897 49.5529C238.808 49.3133 238.629 49.1 238.359 48.9132Z" fill="#9ED9CF"/>
        <path d="M94.3434 226.842L94.8842 226.138L99.0663 229.35C99.3451 229.564 99.5449 229.766 99.6658 229.955C99.7867 230.144 99.8574 230.316 99.8778 230.472C99.8983 230.629 99.8832 230.768 99.8326 230.892C99.7855 231.011 99.7299 231.112 99.6656 231.196C99.4943 231.419 99.282 231.585 99.0288 231.693C98.7802 231.805 98.4939 231.885 98.17 231.931L94.9443 232.379C95.3578 232.697 95.681 233.026 95.9138 233.368C96.1466 233.709 96.298 234.051 96.3679 234.393C96.4414 234.73 96.4329 235.063 96.3424 235.393C96.2601 235.721 96.1065 236.032 95.8816 236.324C95.5497 236.756 95.1744 237.081 94.7559 237.299C94.3373 237.517 93.891 237.651 93.417 237.701C92.9476 237.754 92.4603 237.734 91.9551 237.642C91.4499 237.549 90.9405 237.409 90.427 237.221C89.9217 237.033 89.4221 236.808 88.9282 236.547C88.4343 236.286 87.964 236.013 87.5172 235.729L88.0526 235.032C88.3014 235.208 88.5969 235.391 88.9393 235.58C89.2899 235.768 89.7198 235.939 90.229 236.094C90.6857 236.231 91.1037 236.312 91.4831 236.337C91.8661 236.358 92.2151 236.327 92.5302 236.244C92.8452 236.161 93.1286 236.027 93.3803 235.844C93.6367 235.664 93.8666 235.442 94.0701 235.177C94.2236 234.977 94.3367 234.772 94.4094 234.562C94.4857 234.347 94.507 234.127 94.4732 233.902C94.4395 233.676 94.3402 233.445 94.1753 233.207C94.0151 232.973 93.7747 232.733 93.4541 232.487L92.2273 231.545L92.5325 231.147L96.6734 230.604C96.8788 230.577 97.0879 230.531 97.3008 230.466C97.5137 230.4 97.6737 230.298 97.7807 230.158C97.9057 229.996 97.9361 229.845 97.8721 229.708C97.808 229.57 97.6459 229.401 97.3857 229.201L94.3434 226.842Z" fill="#9ED9CF"/>
        <path d="M111.081 238.941L107.715 236.983L105.644 238.534C105.744 238.538 105.862 238.562 105.998 238.608C106.134 238.653 106.273 238.707 106.413 238.768C106.559 238.832 106.696 238.899 106.826 238.967C106.963 239.034 107.078 239.094 107.169 239.147C107.767 239.494 108.237 239.88 108.581 240.303C108.924 240.727 109.158 241.164 109.281 241.616C109.408 242.062 109.432 242.51 109.354 242.959C109.284 243.406 109.132 243.83 108.899 244.23C108.452 245 107.927 245.576 107.325 245.958C106.731 246.338 106.095 246.564 105.415 246.637C104.739 246.704 104.037 246.635 103.31 246.429C102.587 246.226 101.877 245.921 101.178 245.514C100.95 245.382 100.72 245.235 100.489 245.073C100.257 244.911 100.039 244.727 99.8345 244.52L100.259 243.79C100.335 243.869 100.428 243.953 100.538 244.044C100.651 244.13 100.764 244.216 100.876 244.302C100.992 244.383 101.1 244.459 101.2 244.531C101.304 244.598 101.386 244.649 101.447 244.685C102.06 245.041 102.651 245.266 103.22 245.36C103.797 245.451 104.327 245.438 104.809 245.319C105.297 245.202 105.733 244.995 106.117 244.696C106.509 244.395 106.829 244.032 107.076 243.607C107.332 243.166 107.494 242.748 107.561 242.354C107.636 241.957 107.629 241.59 107.54 241.253C107.454 240.912 107.292 240.601 107.055 240.321C106.826 240.039 106.535 239.794 106.18 239.588C105.891 239.42 105.624 239.292 105.377 239.203C105.136 239.117 104.909 239.052 104.696 239.01C104.489 238.971 104.288 238.949 104.094 238.944C103.903 238.935 103.714 238.927 103.528 238.92L108.24 235.54L112.32 237.913L111.081 238.941Z" fill="#9ED9CF"/>
        <path d="M124.97 243.796L115.414 252.678L114.42 252.255L122.53 244.657L117.186 242.379L118.631 241.094L124.97 243.796Z" fill="#9ED9CF"/>
        <path d="M141.067 252.131C141.308 252.182 141.515 252.237 141.688 252.297C141.862 252.351 142.023 252.415 142.169 252.487C142.321 252.561 142.469 252.64 142.613 252.724C142.757 252.808 142.918 252.902 143.094 253.004L142.918 253.758C142.669 253.604 142.4 253.458 142.112 253.32C141.829 253.183 141.484 253.071 141.077 252.986C140.991 252.968 140.885 252.958 140.76 252.956C140.635 252.954 140.512 252.97 140.391 253.004C140.271 253.033 140.164 253.086 140.07 253.162C139.977 253.238 139.916 253.342 139.888 253.474C139.857 253.623 139.885 253.817 139.973 254.057C140.066 254.298 140.226 254.607 140.452 254.984L141.155 256.217C141.303 256.482 141.45 256.74 141.595 256.992C141.746 257.239 141.876 257.479 141.983 257.71C142.09 257.942 142.169 258.168 142.218 258.388C142.275 258.604 142.283 258.809 142.242 259.004C142.163 259.382 142.01 259.686 141.782 259.913C141.555 260.141 141.286 260.312 140.975 260.427C140.665 260.535 140.327 260.591 139.961 260.592C139.602 260.594 139.247 260.559 138.897 260.486C138.41 260.384 137.988 260.239 137.632 260.051C137.281 259.869 136.96 259.646 136.668 259.382L136.899 258.622C137.134 258.815 137.393 259.004 137.678 259.189C137.963 259.369 138.27 259.493 138.597 259.561C139.136 259.674 139.56 259.664 139.869 259.531C140.178 259.398 140.371 259.151 140.446 258.79C140.499 258.537 140.448 258.251 140.294 257.932C140.145 257.613 139.95 257.255 139.71 256.858L139.012 255.643C138.835 255.289 138.682 254.99 138.553 254.748C138.43 254.507 138.334 254.295 138.264 254.113C138.194 253.931 138.149 253.762 138.127 253.608C138.111 253.455 138.122 253.29 138.159 253.112C138.22 252.82 138.337 252.59 138.51 252.422C138.689 252.256 138.904 252.14 139.158 252.073C139.418 252.002 139.711 251.976 140.036 251.996C140.362 252.011 140.706 252.056 141.067 252.131Z" fill="#9ED9CF"/>
        <path d="M153.539 254.039C154.134 254.096 154.625 254.255 155.012 254.515C155.406 254.771 155.713 255.097 155.934 255.495C156.161 255.893 156.306 256.343 156.37 256.843C156.441 257.339 156.45 257.857 156.398 258.4L156.359 258.811L150.97 258.297C150.938 258.623 150.957 258.981 151.026 259.37C151.095 259.759 151.23 260.126 151.433 260.469C151.642 260.812 151.922 261.11 152.275 261.361C152.634 261.607 153.088 261.757 153.636 261.809L155.456 261.983L155.387 262.7L153.541 262.524C152.725 262.446 152.028 262.285 151.451 262.042C150.879 261.799 150.418 261.481 150.067 261.089C149.722 260.697 149.484 260.235 149.352 259.705C149.22 259.174 149.186 258.58 149.248 257.92C149.301 257.372 149.436 256.849 149.654 256.352C149.878 255.856 150.172 255.428 150.536 255.068C150.906 254.703 151.342 254.427 151.842 254.239C152.349 254.046 152.915 253.98 153.539 254.039ZM153.376 254.827C153.014 254.792 152.697 254.845 152.425 254.983C152.152 255.122 151.919 255.321 151.723 255.579C151.534 255.831 151.382 256.135 151.266 256.488C151.156 256.837 151.08 257.204 151.037 257.588L154.738 257.941L154.774 257.565C154.795 257.226 154.793 256.899 154.77 256.585C154.753 256.271 154.695 255.989 154.595 255.738C154.496 255.487 154.347 255.282 154.151 255.122C153.961 254.956 153.702 254.858 153.376 254.827Z" fill="#9ED9CF"/>
        <path d="M166.429 255.293C166.147 255.3 165.902 255.314 165.691 255.337C165.487 255.36 165.3 255.388 165.131 255.421C164.961 255.455 164.804 255.494 164.659 255.538C164.513 255.577 164.368 255.619 164.222 255.663L163.997 255.097C164.485 254.904 164.994 254.762 165.525 254.673C166.062 254.578 166.571 254.524 167.051 254.513C167.666 254.498 168.171 254.517 168.565 254.572C168.965 254.627 169.278 254.728 169.504 254.875C169.73 255.016 169.888 255.211 169.976 255.461C170.07 255.705 170.121 256.014 170.13 256.389L170.289 262.882L167.408 262.953C166.623 262.972 165.95 262.906 165.389 262.756C164.835 262.605 164.378 262.397 164.02 262.13C163.662 261.858 163.396 261.545 163.223 261.191C163.051 260.832 162.959 260.453 162.949 260.055C162.937 259.563 163.003 259.128 163.146 258.749C163.295 258.37 163.513 258.052 163.8 257.792C164.086 257.528 164.439 257.325 164.857 257.186C165.276 257.041 165.754 256.962 166.293 256.949C166.586 256.942 166.918 256.983 167.29 257.074C167.667 257.164 168.028 257.305 168.373 257.496L168.346 256.397C168.343 256.263 168.325 256.128 168.292 255.994C168.259 255.855 168.18 255.733 168.055 255.631C167.929 255.523 167.736 255.437 167.477 255.373C167.223 255.308 166.874 255.282 166.429 255.293ZM168.488 262.205L168.388 258.137C168.103 257.974 167.807 257.855 167.501 257.781C167.194 257.706 166.856 257.674 166.487 257.683C166.194 257.69 165.935 257.749 165.709 257.86C165.489 257.971 165.305 258.125 165.158 258.322C165.01 258.519 164.899 258.753 164.823 259.025C164.754 259.296 164.723 259.596 164.731 259.924C164.733 260.017 164.739 260.14 164.749 260.292C164.764 260.444 164.798 260.608 164.849 260.782C164.906 260.957 164.986 261.134 165.09 261.313C165.2 261.486 165.35 261.643 165.541 261.785C165.732 261.927 165.973 262.041 166.262 262.128C166.551 262.209 166.904 262.244 167.32 262.234L168.488 262.205Z" fill="#9ED9CF"/>
        <path d="M179.132 253.55C179.376 253.517 179.589 253.499 179.772 253.498C179.955 253.491 180.127 253.497 180.289 253.516C180.457 253.535 180.623 253.559 180.787 253.59C180.951 253.621 181.133 253.655 181.333 253.693L181.421 254.462C181.134 254.4 180.832 254.353 180.514 254.319C180.202 254.285 179.84 254.296 179.427 254.352C179.34 254.364 179.237 254.39 179.119 254.43C179 254.47 178.889 254.526 178.787 254.599C178.684 254.667 178.601 254.752 178.538 254.855C178.475 254.958 178.453 255.077 178.471 255.21C178.492 255.361 178.583 255.535 178.746 255.731C178.915 255.927 179.169 256.165 179.509 256.443L180.584 257.37C180.813 257.57 181.037 257.764 181.258 257.952C181.484 258.134 181.686 258.317 181.865 258.499C182.044 258.682 182.193 258.868 182.314 259.059C182.44 259.243 182.516 259.434 182.543 259.631C182.595 260.014 182.552 260.351 182.415 260.642C182.277 260.933 182.08 261.184 181.826 261.396C181.57 261.603 181.27 261.768 180.926 261.892C180.588 262.015 180.242 262.1 179.888 262.149C179.395 262.216 178.949 262.221 178.55 262.163C178.159 262.11 177.781 262.007 177.418 261.856L177.38 261.063C177.666 261.166 177.974 261.257 178.305 261.336C178.634 261.409 178.964 261.423 179.295 261.378C179.841 261.304 180.237 261.152 180.484 260.923C180.73 260.694 180.829 260.397 180.779 260.031C180.744 259.776 180.6 259.523 180.347 259.274C180.1 259.024 179.797 258.752 179.438 258.458L178.373 257.548C178.087 257.273 177.843 257.043 177.64 256.858C177.444 256.672 177.282 256.505 177.155 256.357C177.028 256.208 176.929 256.065 176.857 255.927C176.791 255.788 176.745 255.629 176.721 255.449C176.68 255.153 176.713 254.897 176.82 254.681C176.932 254.465 177.097 254.283 177.313 254.135C177.535 253.981 177.802 253.858 178.115 253.768C178.427 253.673 178.766 253.6 179.132 253.55Z" fill="#9ED9CF"/>
        <path d="M192.014 259.741L190.276 260.147L188.392 252.085L190.129 251.679L192.014 259.741ZM189.813 250.327L188.076 250.733L187.838 249.715L189.575 249.309L189.813 250.327Z" fill="#9ED9CF"/>
        <path d="M204.73 255.972C204.073 256.205 203.474 256.358 202.935 256.431C202.4 256.503 201.915 256.51 201.478 256.454C201.045 256.389 200.659 256.272 200.318 256.1C199.983 255.927 199.686 255.712 199.427 255.456C199.167 255.194 198.944 254.9 198.76 254.573C198.576 254.247 198.419 253.901 198.29 253.537C198.098 252.996 198.001 252.467 197.999 251.952C198 251.43 198.108 250.944 198.321 250.495C198.539 250.039 198.868 249.627 199.31 249.259C199.755 248.883 200.328 248.571 201.029 248.323C201.306 248.225 201.634 248.161 202.015 248.132C202.402 248.1 202.789 248.122 203.176 248.196L201.431 243.275L203.113 242.679L207.48 254.997L204.73 255.972ZM199.966 252.924C200.033 253.112 200.121 253.326 200.231 253.567C200.345 253.8 200.487 254.035 200.659 254.273C200.828 254.505 201.03 254.723 201.263 254.926C201.5 255.122 201.774 255.279 202.084 255.4C202.397 255.512 202.752 255.567 203.149 255.563C203.551 255.557 203.998 255.467 204.489 255.293L205.558 254.914L203.393 248.809C203.071 248.743 202.753 248.722 202.439 248.746C202.122 248.765 201.79 248.836 201.442 248.96C201.033 249.105 200.699 249.319 200.439 249.604C200.183 249.882 199.995 250.2 199.874 250.56C199.758 250.918 199.708 251.303 199.723 251.714C199.742 252.117 199.823 252.521 199.966 252.924Z" fill="#9ED9CF"/>
        <path d="M214.78 242.477C215.313 242.207 215.813 242.078 216.279 242.091C216.748 242.097 217.183 242.208 217.582 242.426C217.987 242.642 218.35 242.944 218.672 243.333C218.996 243.713 219.281 244.147 219.528 244.633L219.714 245.002L214.885 247.448C215.033 247.741 215.24 248.033 215.506 248.326C215.773 248.618 216.083 248.854 216.438 249.036C216.798 249.215 217.194 249.316 217.627 249.34C218.062 249.356 218.525 249.24 219.016 248.991L220.647 248.165L220.973 248.808L219.318 249.646C218.587 250.016 217.912 250.253 217.294 250.356C216.681 250.456 216.122 250.434 215.615 250.29C215.114 250.144 214.666 249.881 214.271 249.503C213.876 249.126 213.528 248.641 213.229 248.051C212.98 247.559 212.815 247.045 212.734 246.508C212.657 245.969 212.677 245.45 212.792 244.952C212.91 244.445 213.13 243.979 213.453 243.553C213.778 243.119 214.221 242.76 214.78 242.477ZM215.063 243.23C214.739 243.394 214.499 243.608 214.343 243.87C214.187 244.133 214.096 244.426 214.069 244.748C214.044 245.063 214.077 245.401 214.168 245.762C214.262 246.115 214.393 246.466 214.563 246.813L217.879 245.133L217.709 244.796C217.545 244.498 217.369 244.223 217.181 243.969C216.999 243.714 216.799 243.506 216.581 243.348C216.362 243.189 216.127 243.094 215.876 243.064C215.627 243.026 215.356 243.082 215.063 243.23Z" fill="#9ED9CF"/>
        <path d="M234.145 230.997C233.925 231.173 233.739 231.333 233.585 231.478C233.435 231.62 233.304 231.755 233.189 231.884C233.075 232.013 232.973 232.14 232.884 232.263C232.792 232.382 232.701 232.503 232.612 232.627L232.091 232.312C232.362 231.863 232.682 231.442 233.051 231.05C233.421 230.649 233.794 230.299 234.169 229.999C234.65 229.615 235.064 229.326 235.411 229.131C235.762 228.933 236.072 228.824 236.341 228.804C236.607 228.779 236.85 228.84 237.071 228.985C237.294 229.123 237.522 229.338 237.756 229.631L241.81 234.706L239.558 236.505C238.944 236.995 238.369 237.35 237.832 237.569C237.299 237.784 236.809 237.894 236.363 237.899C235.912 237.898 235.512 237.81 235.16 237.633C234.806 237.452 234.504 237.205 234.255 236.894C233.948 236.509 233.737 236.123 233.622 235.735C233.511 235.343 233.492 234.957 233.563 234.578C233.631 234.193 233.79 233.819 234.039 233.455C234.285 233.087 234.618 232.734 235.039 232.398C235.268 232.215 235.558 232.047 235.908 231.895C236.263 231.738 236.636 231.632 237.026 231.575L236.34 230.717C236.256 230.612 236.16 230.516 236.053 230.429C235.943 230.337 235.806 230.288 235.644 230.283C235.479 230.273 235.273 230.321 235.028 230.427C234.787 230.529 234.493 230.719 234.145 230.997ZM239.966 235.256L237.426 232.077C237.1 232.12 236.793 232.204 236.504 232.33C236.214 232.456 235.926 232.634 235.637 232.865C235.408 233.048 235.238 233.252 235.125 233.477C235.017 233.698 234.963 233.932 234.965 234.178C234.967 234.424 235.02 234.678 235.124 234.94C235.233 235.198 235.389 235.455 235.594 235.712C235.653 235.785 235.732 235.879 235.831 235.994C235.936 236.106 236.061 236.216 236.207 236.324C236.358 236.429 236.529 236.521 236.72 236.6C236.913 236.672 237.128 236.706 237.366 236.704C237.603 236.701 237.864 236.647 238.147 236.541C238.426 236.43 238.728 236.245 239.053 235.986L239.966 235.256Z" fill="#9ED9CF"/>
        <path d="M248.839 225.533L246.003 219.329L246.595 218.727L249.887 225.909L250.815 226.243L249.515 227.566L240.937 224.48L242.25 223.145L248.839 225.533Z" fill="#9ED9CF"/>
        <path d="M252.814 211.029C253.179 210.556 253.576 210.225 254.002 210.037C254.428 209.84 254.868 209.754 255.323 209.779C255.781 209.799 256.238 209.916 256.696 210.129C257.153 210.333 257.597 210.602 258.028 210.935L258.355 211.187L255.047 215.473C255.306 215.673 255.619 215.848 255.985 215.997C256.351 216.147 256.733 216.227 257.131 216.238C257.533 216.245 257.935 216.166 258.335 216.002C258.735 215.829 259.103 215.525 259.44 215.089L260.557 213.642L261.127 214.082L259.994 215.55C259.493 216.2 258.986 216.704 258.472 217.062C257.962 217.416 257.447 217.637 256.928 217.725C256.412 217.808 255.895 217.763 255.376 217.592C254.857 217.421 254.335 217.133 253.811 216.728C253.375 216.392 253.005 215.999 252.7 215.549C252.4 215.095 252.194 214.618 252.084 214.118C251.973 213.61 251.971 213.095 252.079 212.571C252.186 212.039 252.431 211.525 252.814 211.029ZM253.394 211.587C253.172 211.875 253.047 212.171 253.019 212.475C252.991 212.78 253.035 213.083 253.149 213.386C253.262 213.681 253.437 213.971 253.675 214.258C253.911 214.537 254.181 214.797 254.483 215.038L256.755 212.095L256.456 211.864C256.18 211.665 255.902 211.492 255.624 211.344C255.35 211.192 255.08 211.091 254.815 211.041C254.549 210.992 254.297 211.008 254.056 211.089C253.815 211.161 253.594 211.328 253.394 211.587Z" fill="#9ED9CF"/>
        <path d="M266.698 205.789L265.751 207.301L264.559 206.555L265.506 205.043L266.698 205.789Z" fill="#9ED9CF"/>
        <path d="M15.1035 187.146V201.656H6.97656V146.474H20.7812C24.6654 146.474 27.9928 146.808 30.7637 147.476C33.5345 148.119 35.86 148.985 37.7402 150.074C39.6204 151.162 41.1296 152.424 42.2676 153.859C43.4056 155.269 44.2715 156.741 44.8652 158.275C45.459 159.784 45.8424 161.306 46.0156 162.839C46.2135 164.349 46.3125 165.759 46.3125 167.07C46.3125 168.356 46.2012 169.754 45.9785 171.263C45.7806 172.748 45.36 174.232 44.7168 175.716C44.0983 177.201 43.2077 178.636 42.0449 180.021C40.9069 181.382 39.3854 182.594 37.4805 183.658C35.6003 184.722 33.2871 185.575 30.541 186.218C27.8197 186.837 24.5664 187.146 20.7812 187.146H15.1035ZM15.1035 150.111V183.509H19.668C22.4141 183.509 24.9004 183.2 27.127 182.582C29.3535 181.963 31.2461 180.974 32.8047 179.613C34.388 178.252 35.6003 176.52 36.4414 174.418C37.2826 172.29 37.7031 169.717 37.7031 166.699C37.7031 164.398 37.4805 162.394 37.0352 160.687C36.6146 158.955 36.0085 157.483 35.2168 156.271C34.4251 155.034 33.4727 154.02 32.3594 153.228C31.2708 152.436 30.0586 151.806 28.7227 151.336C27.4115 150.866 26.0013 150.544 24.4922 150.371C22.9831 150.198 21.4245 150.111 19.8164 150.111H15.1035Z" fill="#F97F77"/>
        <path d="M64.3526 188.471H56.6182V136.193H64.3526V188.471Z" fill="#F97F77"/>
        <path d="M101.957 122.856C106.035 122.856 109.808 123.524 113.277 124.86C116.769 126.173 119.863 128.001 122.558 130.345L120.59 132.946C119.511 132.032 118.316 131.177 117.004 130.38C115.691 129.583 114.308 128.903 112.855 128.341C111.402 127.755 109.89 127.298 108.32 126.97C106.75 126.618 105.168 126.442 103.574 126.442C100.152 126.442 97.1169 127.063 94.4685 128.306C91.8201 129.548 89.5935 131.247 87.7888 133.403C85.9841 135.559 84.613 138.079 83.6755 140.962C82.738 143.845 82.2693 146.938 82.2693 150.243C82.2693 153.477 82.7263 156.524 83.6404 159.384C84.5779 162.243 85.9373 164.751 87.7185 166.907C89.5232 169.063 91.7498 170.774 94.3982 172.04C97.0466 173.282 100.082 173.903 103.504 173.903C105.144 173.903 106.808 173.739 108.496 173.411C110.183 173.083 111.812 172.602 113.383 171.97C114.953 171.337 116.429 170.563 117.812 169.649C119.219 168.735 120.461 167.692 121.539 166.52L123.543 169.087C120.777 171.712 117.566 173.763 113.91 175.239C110.254 176.716 106.269 177.454 101.957 177.454C99.3552 177.454 96.8591 177.126 94.4685 176.47C92.0779 175.837 89.8396 174.923 87.7537 173.727C85.6912 172.532 83.8044 171.114 82.0935 169.474C80.406 167.809 78.9529 165.97 77.7341 163.954C76.5388 161.938 75.6013 159.782 74.9216 157.485C74.2654 155.165 73.9373 152.751 73.9373 150.243C73.9373 147.735 74.2654 145.309 74.9216 142.966C75.6013 140.622 76.5388 138.442 77.7341 136.427C78.9529 134.388 80.406 132.536 82.0935 130.872C83.8044 129.208 85.6912 127.79 87.7537 126.618C89.8396 125.423 92.0779 124.497 94.4685 123.841C96.8591 123.184 99.3552 122.856 101.957 122.856Z" fill="#F97F77"/>
        <path d="M160.372 113.74V117.186H147.716V166.018H140.017V117.186H127.255V113.74H160.372Z" fill="#F97F77"/>
        <path d="M193.95 155.811C191.372 155.811 188.888 155.483 186.497 154.826C184.13 154.17 181.903 153.256 179.818 152.084C177.755 150.889 175.868 149.459 174.157 147.795C172.47 146.131 171.017 144.291 169.798 142.276C168.579 140.237 167.63 138.057 166.95 135.737C166.294 133.393 165.966 130.955 165.966 128.424C165.966 125.94 166.294 123.537 166.95 121.217C167.63 118.897 168.579 116.729 169.798 114.713C171.017 112.697 172.47 110.858 174.157 109.194C175.868 107.529 177.755 106.112 179.818 104.94C181.903 103.768 184.13 102.854 186.497 102.197C188.888 101.541 191.372 101.213 193.95 101.213C196.505 101.213 198.966 101.541 201.333 102.197C203.7 102.83 205.915 103.744 207.978 104.94C210.04 106.112 211.915 107.529 213.603 109.194C215.314 110.858 216.767 112.697 217.962 114.713C219.181 116.729 220.118 118.897 220.775 121.217C221.454 123.537 221.794 125.94 221.794 128.424C221.794 130.955 221.454 133.393 220.775 135.737C220.118 138.057 219.181 140.237 217.962 142.276C216.767 144.291 215.314 146.131 213.603 147.795C211.915 149.459 210.04 150.889 207.978 152.084C205.915 153.256 203.7 154.17 201.333 154.826C198.966 155.483 196.505 155.811 193.95 155.811ZM193.95 152.401C197.138 152.401 199.95 151.779 202.388 150.537C204.849 149.295 206.911 147.596 208.575 145.44C210.239 143.283 211.493 140.752 212.337 137.846C213.204 134.916 213.638 131.776 213.638 128.424C213.638 125.096 213.216 121.979 212.372 119.072C211.528 116.166 210.275 113.647 208.611 111.514C206.97 109.381 204.919 107.705 202.458 106.487C199.997 105.244 197.161 104.623 193.95 104.623C190.693 104.623 187.833 105.244 185.372 106.487C182.935 107.705 180.884 109.381 179.22 111.514C177.579 113.647 176.337 116.166 175.493 119.072C174.673 121.979 174.263 125.096 174.263 128.424C174.263 131.776 174.685 134.916 175.528 137.846C176.372 140.752 177.614 143.283 179.255 145.44C180.919 147.596 182.982 149.295 185.443 150.537C187.903 151.779 190.739 152.401 193.95 152.401Z" fill="#F97F77"/>
        <path d="M272.133 141.524H266.227L237.258 100.918V141.524H233.672V95.8907L228.996 89.2462H238.418L268.512 131.504V89.2462H272.133V141.524Z" fill="#F97F77"/>
        <path d="M262.001 161.894C262.892 161.347 263.837 160.941 264.837 160.675C265.837 160.409 266.736 160.277 267.533 160.277C269.517 160.277 271.228 160.55 272.666 161.097C274.119 161.628 275.314 162.37 276.251 163.323C277.205 164.261 277.908 165.386 278.361 166.698C278.814 167.995 279.041 169.409 279.041 170.941C279.041 172.487 278.83 173.98 278.408 175.417C278.001 176.839 277.267 178.097 276.205 179.191C275.158 180.284 273.728 181.159 271.916 181.816C270.103 182.472 267.806 182.8 265.025 182.8H257.267V147.948H262.001V161.894ZM267.041 162.245C266.041 162.245 265.134 162.362 264.322 162.597C263.525 162.831 262.751 163.175 262.001 163.628V180.878H265.025C266.431 180.878 267.634 180.706 268.634 180.362C269.634 180.019 270.478 179.566 271.166 179.003C271.853 178.425 272.4 177.784 272.806 177.081C273.228 176.362 273.548 175.636 273.767 174.902C273.986 174.152 274.126 173.433 274.189 172.745C274.267 172.042 274.306 171.425 274.306 170.894C274.306 169.753 274.142 168.667 273.814 167.636C273.501 166.589 273.033 165.667 272.408 164.87C271.798 164.073 271.041 163.441 270.134 162.972C269.244 162.487 268.212 162.245 267.041 162.245Z" fill="#49C2EB"/>
        <path d="M286.864 142.846H291.622V177.697H286.864V142.846Z" fill="#49C2EB"/>
        <path d="M314.559 167.704C313.543 168.142 312.613 168.509 311.77 168.806C310.926 169.087 310.137 169.314 309.402 169.485C308.684 169.657 308.004 169.775 307.363 169.837C306.723 169.915 306.113 169.954 305.535 169.954C304.066 169.954 302.941 169.579 302.16 168.829C301.395 168.064 301.012 166.829 301.012 165.126V147.454H305.77V164.4C305.77 164.759 305.801 165.118 305.863 165.478C305.941 165.821 306.066 166.134 306.238 166.415C306.426 166.696 306.676 166.931 306.988 167.118C307.301 167.29 307.707 167.376 308.207 167.376C309.004 167.376 309.926 167.282 310.973 167.095C312.035 166.892 313.231 166.485 314.559 165.876V147.454H319.293V169.532H314.559V167.704Z" fill="#49C2EB"/>
        <path d="M335.691 139.865C337.284 139.865 338.628 140.162 339.722 140.755C340.831 141.334 341.73 142.123 342.417 143.123C343.12 144.123 343.62 145.279 343.917 146.591C344.23 147.888 344.386 149.263 344.386 150.716V151.818H329.948C329.948 152.693 330.089 153.638 330.37 154.654C330.651 155.669 331.105 156.607 331.73 157.466C332.37 158.326 333.191 159.044 334.191 159.623C335.206 160.185 336.448 160.466 337.917 160.466H342.792V162.388H337.847C335.659 162.388 333.769 162.138 332.175 161.638C330.597 161.138 329.292 160.412 328.261 159.459C327.245 158.505 326.495 157.341 326.011 155.966C325.526 154.591 325.284 153.021 325.284 151.255C325.284 149.787 325.511 148.365 325.964 146.99C326.433 145.615 327.105 144.404 327.98 143.357C328.87 142.294 329.956 141.451 331.237 140.826C332.534 140.185 334.019 139.865 335.691 139.865ZM335.456 141.998C334.487 141.998 333.659 142.216 332.972 142.654C332.284 143.091 331.714 143.677 331.261 144.412C330.823 145.13 330.495 145.974 330.276 146.943C330.073 147.896 329.964 148.888 329.948 149.919H339.862V148.912C339.831 148.005 339.745 147.138 339.605 146.31C339.48 145.482 339.253 144.748 338.925 144.107C338.597 143.466 338.151 142.959 337.589 142.584C337.042 142.193 336.331 141.998 335.456 141.998Z" fill="#49C2EB"/>
        <path d="M148.548 208.431C149.013 208.431 149.405 208.517 149.724 208.69C150.047 208.859 150.309 209.089 150.51 209.381C150.715 209.673 150.861 210.01 150.947 210.393C151.038 210.771 151.084 211.172 151.084 211.596V211.917H146.873C146.873 212.172 146.914 212.448 146.996 212.744C147.078 213.04 147.21 213.314 147.393 213.564C147.579 213.815 147.819 214.025 148.11 214.193C148.407 214.357 148.769 214.439 149.197 214.439H150.619V215H149.177C148.539 215 147.987 214.927 147.522 214.781C147.062 214.635 146.682 214.424 146.381 214.146C146.085 213.868 145.866 213.528 145.725 213.127C145.583 212.726 145.513 212.268 145.513 211.753C145.513 211.325 145.579 210.91 145.711 210.509C145.848 210.108 146.044 209.755 146.299 209.449C146.559 209.139 146.875 208.893 147.249 208.711C147.627 208.524 148.06 208.431 148.548 208.431ZM148.479 209.053C148.197 209.053 147.955 209.117 147.755 209.244C147.554 209.372 147.388 209.543 147.256 209.757C147.128 209.966 147.033 210.213 146.969 210.495C146.91 210.773 146.878 211.062 146.873 211.363H149.765V211.069C149.756 210.805 149.73 210.552 149.689 210.311C149.653 210.069 149.587 209.855 149.491 209.668C149.396 209.481 149.266 209.333 149.102 209.224C148.942 209.11 148.735 209.053 148.479 209.053ZM154.133 208.431C154.324 208.431 154.491 208.44 154.632 208.458C154.773 208.472 154.905 208.494 155.028 208.526C155.156 208.558 155.281 208.595 155.404 208.636C155.527 208.677 155.664 208.722 155.814 208.772L155.801 209.374C155.587 209.297 155.359 209.228 155.117 209.169C154.88 209.11 154.6 209.08 154.276 209.08C154.208 209.08 154.126 209.089 154.03 209.107C153.935 209.126 153.843 209.158 153.757 209.203C153.67 209.244 153.597 209.301 153.538 209.374C153.479 209.447 153.449 209.536 153.449 209.641C153.449 209.759 153.502 209.903 153.606 210.071C153.716 210.24 153.887 210.45 154.119 210.7L154.851 211.527C155.006 211.705 155.158 211.878 155.309 212.047C155.464 212.211 155.6 212.373 155.719 212.532C155.837 212.692 155.933 212.851 156.006 213.011C156.083 213.166 156.122 213.321 156.122 213.476C156.122 213.776 156.054 214.032 155.917 214.241C155.78 214.451 155.603 214.624 155.384 214.761C155.165 214.893 154.917 214.989 154.639 215.048C154.365 215.107 154.09 215.137 153.812 215.137C153.424 215.137 153.08 215.093 152.779 215.007C152.483 214.925 152.203 214.806 151.938 214.651L151.993 214.036C152.203 214.146 152.431 214.248 152.677 214.344C152.923 214.435 153.176 214.48 153.436 214.48C153.864 214.48 154.185 214.405 154.399 214.255C154.614 214.104 154.721 213.886 154.721 213.599C154.721 213.398 154.636 213.188 154.468 212.97C154.304 212.751 154.099 212.509 153.853 212.245L153.128 211.432C152.937 211.19 152.772 210.987 152.636 210.823C152.504 210.659 152.396 210.513 152.314 210.386C152.232 210.258 152.171 210.137 152.13 210.023C152.093 209.91 152.075 209.782 152.075 209.641C152.075 209.408 152.128 209.215 152.232 209.06C152.342 208.905 152.488 208.782 152.67 208.69C152.857 208.595 153.076 208.529 153.326 208.492C153.577 208.451 153.846 208.431 154.133 208.431ZM159.957 209.176H159.034V215H157.722V209.176H156.833V208.561H157.722V206.462L159.034 206.065V208.561H159.957V209.176ZM162.459 215H161.071V213.906H162.459V215ZM172.87 215H171.373V206.715L170.437 206.879V206.236L172.419 205.73H172.87V215ZM177.956 206.209C177.674 206.209 177.423 206.282 177.204 206.428C176.99 206.574 176.81 206.758 176.664 206.981C176.518 207.2 176.407 207.439 176.329 207.699C176.256 207.959 176.22 208.203 176.22 208.431C176.22 208.909 176.277 209.306 176.391 209.62C176.505 209.93 176.648 210.178 176.821 210.365C176.994 210.552 177.184 210.684 177.389 210.762C177.594 210.835 177.787 210.871 177.97 210.871C178.339 210.871 178.665 210.796 178.947 210.646C179.234 210.495 179.474 210.317 179.665 210.112V209.094C179.665 208.128 179.531 207.405 179.262 206.927C178.997 206.448 178.562 206.209 177.956 206.209ZM180.082 212.799C179.886 213.063 179.645 213.327 179.357 213.592C179.07 213.852 178.749 214.093 178.394 214.316C178.043 214.535 177.66 214.724 177.245 214.884C176.835 215.039 176.409 215.144 175.967 215.198V214.61C176.363 214.519 176.712 214.41 177.013 214.282C177.313 214.15 177.578 214.004 177.806 213.845C178.034 213.681 178.232 213.505 178.4 213.318C178.574 213.132 178.729 212.936 178.865 212.73C179.034 212.475 179.177 212.2 179.296 211.903C179.419 211.603 179.512 211.24 179.576 210.816C179.408 210.958 179.234 211.076 179.057 211.172C178.879 211.263 178.703 211.336 178.53 211.391C178.357 211.445 178.186 211.484 178.018 211.507C177.854 211.53 177.701 211.541 177.56 211.541C177.222 211.541 176.917 211.502 176.644 211.425C176.375 211.343 176.135 211.233 175.926 211.097C175.716 210.955 175.536 210.794 175.386 210.611C175.235 210.424 175.112 210.226 175.017 210.017C174.921 209.807 174.85 209.59 174.805 209.367C174.759 209.139 174.736 208.916 174.736 208.697C174.736 208.433 174.764 208.189 174.818 207.966C174.873 207.743 174.946 207.54 175.037 207.357C175.128 207.171 175.229 207.007 175.338 206.865C175.452 206.719 175.568 206.594 175.687 206.489C175.928 206.229 176.231 206.015 176.596 205.847C176.965 205.678 177.405 205.594 177.915 205.594C178.507 205.594 179.007 205.692 179.412 205.888C179.822 206.079 180.155 206.343 180.41 206.681C180.665 207.018 180.852 207.414 180.971 207.87C181.094 208.321 181.162 208.804 181.176 209.319C181.176 209.625 181.151 209.932 181.101 210.242C181.055 210.552 180.987 210.857 180.896 211.158C180.804 211.459 180.69 211.748 180.554 212.026C180.417 212.304 180.26 212.562 180.082 212.799ZM186.139 208.294C186.139 208.002 186.104 207.736 186.036 207.494C185.972 207.248 185.872 207.038 185.735 206.865C185.599 206.688 185.425 206.551 185.216 206.455C185.006 206.355 184.758 206.305 184.471 206.305C184.325 206.305 184.181 206.307 184.04 206.312C183.899 206.316 183.748 206.332 183.589 206.359C183.434 206.382 183.265 206.416 183.083 206.462C182.905 206.507 182.705 206.571 182.481 206.653V205.97C182.723 205.883 182.944 205.815 183.145 205.765C183.345 205.71 183.527 205.669 183.691 205.642C183.855 205.614 184.001 205.598 184.129 205.594C184.257 205.585 184.37 205.58 184.471 205.58C185.555 205.58 186.378 205.808 186.938 206.264C187.504 206.719 187.786 207.396 187.786 208.294C187.786 208.604 187.725 208.916 187.602 209.23C187.479 209.54 187.312 209.853 187.103 210.167C186.893 210.481 186.651 210.798 186.378 211.117C186.104 211.436 185.817 211.76 185.517 212.088C185.216 212.411 184.91 212.742 184.601 213.079C184.291 213.412 183.999 213.754 183.726 214.104H187.854V215H182.174L184.313 212.272C184.683 211.808 184.983 211.377 185.216 210.98C185.453 210.579 185.64 210.213 185.776 209.88C185.913 209.543 186.007 209.242 186.057 208.978C186.111 208.713 186.139 208.485 186.139 208.294ZM192.339 206.209C192.056 206.209 191.806 206.282 191.587 206.428C191.373 206.574 191.193 206.758 191.047 206.981C190.901 207.2 190.789 207.439 190.712 207.699C190.639 207.959 190.603 208.203 190.603 208.431C190.603 208.909 190.66 209.306 190.773 209.62C190.887 209.93 191.031 210.178 191.204 210.365C191.377 210.552 191.566 210.684 191.771 210.762C191.977 210.835 192.17 210.871 192.353 210.871C192.722 210.871 193.048 210.796 193.33 210.646C193.617 210.495 193.856 210.317 194.048 210.112V209.094C194.048 208.128 193.913 207.405 193.645 206.927C193.38 206.448 192.945 206.209 192.339 206.209ZM194.465 212.799C194.269 213.063 194.027 213.327 193.74 213.592C193.453 213.852 193.132 214.093 192.776 214.316C192.425 214.535 192.043 214.724 191.628 214.884C191.218 215.039 190.792 215.144 190.35 215.198V214.61C190.746 214.519 191.095 214.41 191.396 214.282C191.696 214.15 191.961 214.004 192.188 213.845C192.416 213.681 192.615 213.505 192.783 213.318C192.956 213.132 193.111 212.936 193.248 212.73C193.417 212.475 193.56 212.2 193.679 211.903C193.802 211.603 193.895 211.24 193.959 210.816C193.79 210.958 193.617 211.076 193.439 211.172C193.262 211.263 193.086 211.336 192.913 211.391C192.74 211.445 192.569 211.484 192.4 211.507C192.236 211.53 192.084 211.541 191.942 211.541C191.605 211.541 191.3 211.502 191.026 211.425C190.757 211.343 190.518 211.233 190.309 211.097C190.099 210.955 189.919 210.794 189.769 210.611C189.618 210.424 189.495 210.226 189.399 210.017C189.304 209.807 189.233 209.59 189.188 209.367C189.142 209.139 189.119 208.916 189.119 208.697C189.119 208.433 189.146 208.189 189.201 207.966C189.256 207.743 189.329 207.54 189.42 207.357C189.511 207.171 189.611 207.007 189.721 206.865C189.835 206.719 189.951 206.594 190.069 206.489C190.311 206.229 190.614 206.015 190.979 205.847C191.348 205.678 191.787 205.594 192.298 205.594C192.89 205.594 193.389 205.692 193.795 205.888C194.205 206.079 194.538 206.343 194.793 206.681C195.048 207.018 195.235 207.414 195.354 207.87C195.477 208.321 195.545 208.804 195.559 209.319C195.559 209.625 195.534 209.932 195.483 210.242C195.438 210.552 195.369 210.857 195.278 211.158C195.187 211.459 195.073 211.748 194.937 212.026C194.8 212.304 194.643 212.562 194.465 212.799Z" fill="#F97F77"/>
    </symbol>
</svg>
