<svg width="170" height="138" fill="none" xmlns="http://www.w3.org/2000/svg">
    <symbol id="navbar-logo" viewBox="0 0 170 138">    
        <path d="M7.1543 53.3006V60.1736H3.30469V34.035H9.84375C11.6836 34.035 13.2598 34.1932 14.5723 34.5096C15.8848 34.8143 16.9863 35.2244 17.877 35.7401C18.7676 36.2557 19.4824 36.8533 20.0215 37.533C20.5605 38.201 20.9707 38.8983 21.252 39.6248C21.5332 40.3397 21.7148 41.0604 21.7969 41.7869C21.8906 42.5018 21.9375 43.1697 21.9375 43.7908C21.9375 44.4002 21.8848 45.0623 21.7793 45.7772C21.6855 46.4803 21.4863 47.1834 21.1816 47.8865C20.8887 48.5897 20.4668 49.2693 19.916 49.9256C19.377 50.5701 18.6562 51.1443 17.7539 51.6483C16.8633 52.1522 15.7676 52.5565 14.4668 52.8611C13.1777 53.1541 11.6367 53.3006 9.84375 53.3006H7.1543ZM7.1543 35.7576V51.5779H9.31641C10.6172 51.5779 11.7949 51.4315 12.8496 51.1385C13.9043 50.8455 14.8008 50.3768 15.5391 49.7322C16.2891 49.0877 16.8633 48.2674 17.2617 47.2713C17.6602 46.2635 17.8594 45.0447 17.8594 43.6151C17.8594 42.5252 17.7539 41.576 17.543 40.7674C17.3438 39.9471 17.0566 39.2498 16.6816 38.6756C16.3066 38.0897 15.8555 37.6092 15.3281 37.2342C14.8125 36.8592 14.2383 36.5604 13.6055 36.3377C12.9844 36.1151 12.3164 35.9627 11.6016 35.8807C10.8867 35.7986 10.1484 35.7576 9.38672 35.7576H7.1543Z" fill="#F97F77"/>
        <path d="M32.1719 55.005H28.3047V28.8663H32.1719V55.005Z" fill="#F97F77"/>
        <path d="M51.2578 23.6888C53.2969 23.6888 55.1836 24.0228 56.918 24.6907C58.6641 25.347 60.2109 26.261 61.5586 27.4329L60.5742 28.7337C60.0352 28.2767 59.4375 27.8489 58.7812 27.4505C58.125 27.0521 57.4336 26.7122 56.707 26.431C55.9805 26.138 55.2246 25.9095 54.4395 25.7454C53.6543 25.5696 52.8633 25.4818 52.0664 25.4818C50.3555 25.4818 48.8379 25.7923 47.5137 26.4134C46.1895 27.0345 45.0762 27.8841 44.1738 28.9622C43.2715 30.0403 42.5859 31.3001 42.1172 32.7415C41.6484 34.1829 41.4141 35.7298 41.4141 37.3821C41.4141 38.9993 41.6426 40.5228 42.0996 41.9525C42.5684 43.3821 43.248 44.636 44.1387 45.7142C45.041 46.7923 46.1543 47.6478 47.4785 48.2806C48.8027 48.9017 50.3203 49.2122 52.0312 49.2122C52.8516 49.2122 53.6836 49.1302 54.5273 48.9661C55.3711 48.8021 56.1855 48.5618 56.9707 48.2454C57.7559 47.929 58.4941 47.5423 59.1855 47.0853C59.8887 46.6282 60.5098 46.1068 61.0488 45.5208L62.0508 46.804C60.668 48.1165 59.0625 49.1419 57.2344 49.8802C55.4062 50.6185 53.4141 50.9876 51.2578 50.9876C49.957 50.9876 48.709 50.8235 47.5137 50.4954C46.3184 50.179 45.1992 49.722 44.1562 49.1243C43.125 48.5267 42.1816 47.8177 41.3262 46.9974C40.4824 46.1653 39.7559 45.2454 39.1465 44.2376C38.5488 43.2298 38.0801 42.1517 37.7402 41.0032C37.4121 39.8431 37.248 38.636 37.248 37.3821C37.248 36.1282 37.4121 34.9153 37.7402 33.7435C38.0801 32.5716 38.5488 31.4818 39.1465 30.4739C39.7559 29.4544 40.4824 28.5286 41.3262 27.6966C42.1816 26.8646 43.125 26.1556 44.1562 25.5696C45.1992 24.972 46.3184 24.5091 47.5137 24.181C48.709 23.8528 49.957 23.6888 51.2578 23.6888Z" fill="#F97F77"/>
        <path d="M80.4199 19.6011V21.3237H74.0918V45.7397H70.2422V21.3237H63.8613V19.6011H80.4199Z" fill="#F97F77"/>
        <path d="M97.3281 39.3005C96.0391 39.3005 94.7969 39.1365 93.6016 38.8083C92.418 38.4802 91.3047 38.0232 90.2617 37.4373C89.2305 36.8396 88.2871 36.1248 87.4316 35.2927C86.5879 34.4607 85.8613 33.5408 85.252 32.533C84.6426 31.5134 84.168 30.4236 83.8281 29.2634C83.5 28.0916 83.3359 26.8728 83.3359 25.6072C83.3359 24.365 83.5 23.1638 83.8281 22.0037C84.168 20.8435 84.6426 19.7595 85.252 18.7517C85.8613 17.7439 86.5879 16.824 87.4316 15.9919C88.2871 15.1599 89.2305 14.4509 90.2617 13.865C91.3047 13.2791 92.418 12.822 93.6016 12.4939C94.7969 12.1658 96.0391 12.0017 97.3281 12.0017C98.6055 12.0017 99.8359 12.1658 101.02 12.4939C102.203 12.8103 103.311 13.2673 104.342 13.865C105.373 14.4509 106.311 15.1599 107.154 15.9919C108.01 16.824 108.736 17.7439 109.334 18.7517C109.943 19.7595 110.412 20.8435 110.74 22.0037C111.08 23.1638 111.25 24.365 111.25 25.6072C111.25 26.8728 111.08 28.0916 110.74 29.2634C110.412 30.4236 109.943 31.5134 109.334 32.533C108.736 33.5408 108.01 34.4607 107.154 35.2927C106.311 36.1248 105.373 36.8396 104.342 37.4373C103.311 38.0232 102.203 38.4802 101.02 38.8083C99.8359 39.1365 98.6055 39.3005 97.3281 39.3005ZM97.3281 37.5955C98.9219 37.5955 100.328 37.2849 101.547 36.6638C102.777 36.0427 103.809 35.1931 104.641 34.115C105.473 33.0369 106.1 31.7712 106.521 30.3181C106.955 28.8533 107.172 27.283 107.172 25.6072C107.172 23.9431 106.961 22.3845 106.539 20.9314C106.117 19.4783 105.49 18.2185 104.658 17.1521C103.838 16.0857 102.812 15.2478 101.582 14.6384C100.352 14.0173 98.9336 13.7068 97.3281 13.7068C95.6992 13.7068 94.2695 14.0173 93.0391 14.6384C91.8203 15.2478 90.7949 16.0857 89.9629 17.1521C89.1426 18.2185 88.5215 19.4783 88.0996 20.9314C87.6895 22.3845 87.4844 23.9431 87.4844 25.6072C87.4844 27.283 87.6953 28.8533 88.1172 30.3181C88.5391 31.7712 89.1602 33.0369 89.9805 34.115C90.8125 35.1931 91.8438 36.0427 93.0742 36.6638C94.3047 37.2849 95.7227 37.5955 97.3281 37.5955Z" fill="#F97F77"/>
        <path d="M135.781 33H132.828L118.344 12.6973V33H116.551V10.1836L114.213 6.86133H118.924L133.971 27.9902V6.86133H135.781V33Z" fill="#F97F77"/>
        <path d="M130.938 43.9324C131.383 43.6589 131.855 43.4558 132.355 43.323C132.855 43.1902 133.305 43.1238 133.703 43.1238C134.695 43.1238 135.551 43.2605 136.27 43.5339C136.996 43.7996 137.594 44.1707 138.062 44.6472C138.539 45.116 138.891 45.6785 139.117 46.3347C139.344 46.9832 139.457 47.6902 139.457 48.4558C139.457 49.2292 139.352 49.9753 139.141 50.6941C138.938 51.405 138.57 52.0339 138.039 52.5808C137.516 53.1277 136.801 53.5652 135.895 53.8933C134.988 54.2214 133.84 54.3855 132.449 54.3855H128.57V36.9597H130.938V43.9324ZM133.457 44.1082C132.957 44.1082 132.504 44.1667 132.098 44.2839C131.699 44.4011 131.312 44.573 130.938 44.7996V53.4246H132.449C133.152 53.4246 133.754 53.3386 134.254 53.1667C134.754 52.9949 135.176 52.7683 135.52 52.4871C135.863 52.198 136.137 51.8777 136.34 51.5261C136.551 51.1667 136.711 50.8035 136.82 50.4363C136.93 50.0613 137 49.7019 137.031 49.3582C137.07 49.0066 137.09 48.698 137.09 48.4324C137.09 47.8621 137.008 47.3191 136.844 46.8035C136.688 46.28 136.453 45.8191 136.141 45.4207C135.836 45.0222 135.457 44.7058 135.004 44.4714C134.559 44.2292 134.043 44.1082 133.457 44.1082Z" fill="#49C2EB"/>
        <path d="M141.57 33.3754H143.949V50.8011H141.57V33.3754Z" fill="#49C2EB"/>
        <path d="M154.273 47.4974C153.766 47.7161 153.301 47.8997 152.879 48.0482C152.457 48.1888 152.062 48.3021 151.695 48.388C151.336 48.4739 150.996 48.5325 150.676 48.5638C150.355 48.6028 150.051 48.6224 149.762 48.6224C149.027 48.6224 148.465 48.4349 148.074 48.0599C147.691 47.6771 147.5 47.0599 147.5 46.2083V37.3724H149.879V45.845C149.879 46.0247 149.895 46.2044 149.926 46.3841C149.965 46.556 150.027 46.7122 150.113 46.8528C150.207 46.9935 150.332 47.1107 150.488 47.2044C150.645 47.2903 150.848 47.3333 151.098 47.3333C151.496 47.3333 151.957 47.2864 152.48 47.1927C153.012 47.0911 153.609 46.888 154.273 46.5833V37.3724H156.641V48.4114H154.273V47.4974Z" fill="#49C2EB"/>
        <path d="M164.082 33.5654C164.879 33.5654 165.551 33.7138 166.098 34.0107C166.652 34.2997 167.102 34.6943 167.445 35.1943C167.797 35.6943 168.047 36.2724 168.195 36.9286C168.352 37.5771 168.43 38.2646 168.43 38.9911V39.5419H161.211C161.211 39.9794 161.281 40.4521 161.422 40.9599C161.562 41.4677 161.789 41.9365 162.102 42.3661C162.422 42.7958 162.832 43.1552 163.332 43.4443C163.84 43.7255 164.461 43.8661 165.195 43.8661H167.633V44.8271H165.16C164.066 44.8271 163.121 44.7021 162.324 44.4521C161.535 44.2021 160.883 43.8388 160.367 43.3622C159.859 42.8857 159.484 42.3036 159.242 41.6161C159 40.9286 158.879 40.1435 158.879 39.2607C158.879 38.5263 158.992 37.8154 159.219 37.1279C159.453 36.4404 159.789 35.8349 160.227 35.3115C160.672 34.7802 161.215 34.3583 161.855 34.0458C162.504 33.7255 163.246 33.5654 164.082 33.5654ZM163.965 34.6318C163.48 34.6318 163.066 34.7411 162.723 34.9599C162.379 35.1786 162.094 35.4716 161.867 35.8388C161.648 36.1982 161.484 36.6201 161.375 37.1044C161.273 37.581 161.219 38.0771 161.211 38.5927H166.168V38.0888C166.152 37.6357 166.109 37.2021 166.039 36.788C165.977 36.374 165.863 36.0068 165.699 35.6865C165.535 35.3661 165.312 35.1122 165.031 34.9247C164.758 34.7294 164.402 34.6318 163.965 34.6318Z" fill="#49C2EB"/>
    </symbol>
</svg>
